<svg width="104" height="32" viewBox="0 0 104 32" fill="none" xmlns="http://www.w3.org/2000/svg">
<path d="M2.83298 23.3293C2.61304 25.0312 3.32801 25.7724 4.84069 25.7724C5.33572 25.7724 5.96862 25.7449 7.04141 25.6079L7.26135 26.9776C5.66596 27.4723 5.00613 27.4723 4.26358 27.4723C1.78777 27.4723 0.577753 25.9362 0.962495 23.3812L1.98078 16.1058H0L0.192371 14.5409H2.20008L2.66818 11.1915H4.51109L4.04299 14.5409H8.05905L7.86668 16.1058H3.82305L2.83298 23.3293Z" fill="white"/>
<path d="M12.9253 16.8745C14.0526 15.3384 15.648 14.3214 17.2986 14.3214C17.85 14.3128 18.4013 14.3404 18.9491 14.4039L18.5644 16.1884C17.9321 16.1333 17.4916 16.1333 17.0254 16.1333C15.3473 16.1333 13.8346 17.2041 12.6246 19.2055L11.4704 27.3872H9.62427L11.4396 14.5409H13.2549L12.9253 16.8745Z" fill="white"/>
<path d="M29.9842 27.3898H28.1413L28.3888 25.6616C26.821 26.87 25.7207 27.6387 23.6027 27.6387C20.7697 27.6387 18.1566 25.7717 18.844 20.9119C19.5045 16.0802 21.897 14.2957 24.9505 14.2957C26.7934 14.2957 28.444 15.0638 29.7367 16.1903L29.9567 14.5428H31.7996L29.9842 27.3898ZM29.5161 17.7533C28.2234 16.6274 26.9037 15.8587 25.2532 15.8587C22.9698 15.8587 21.182 17.1491 20.6594 20.9656C20.1092 24.7265 21.9245 26.0994 24.0425 26.0994C25.8585 26.0994 26.9582 25.3851 28.6088 24.0673L29.5161 17.7533Z" fill="white"/>
<path d="M36.2938 16.3253C38.054 14.9256 39.4846 14.3214 41.3827 14.3214C44.1329 14.3214 45.5911 16.1058 45.1236 19.4001L43.9931 27.3898H42.1502L43.3044 19.5928C43.6622 16.9571 43.03 15.8312 40.912 15.8312C39.2614 15.8312 37.7763 16.655 36.0431 18.0554L34.7234 27.3898H32.9081L34.6958 14.5409H36.5388L36.2938 16.3253Z" fill="white"/>
<path d="M56.5314 16.7926C55.1848 16.1884 53.4535 15.7487 52.1857 15.7487C50.5352 15.7487 49.4925 16.3804 49.3528 17.4237C49.1328 18.7415 50.1222 19.2907 52.8154 20.2514C55.7587 21.2671 56.7488 22.256 56.4467 24.3969C56.1441 26.4835 54.3012 27.6368 51.4406 27.6368C49.7093 27.6368 47.2873 26.8957 45.9395 25.6053L46.7372 24.3694C47.9747 25.3583 49.4053 26.1814 51.5227 26.1814C53.254 26.1814 54.5211 25.5503 54.6865 24.1774C54.8513 23.0253 54.1094 22.3379 51.7433 21.5692C48.305 20.4715 47.397 19.3182 47.6445 17.3686C47.9472 15.2277 49.7349 14.2964 52.2107 14.2964C53.9158 14.2964 55.7863 14.7355 57.1893 15.4485L56.5314 16.7926Z" fill="white"/>
<path d="M68.1217 10.6699C67.5715 10.6149 66.8841 10.5873 66.1416 10.5873C64.2435 10.5873 63.5279 11.5474 63.3086 13.3331L63.1162 14.5409H67.2971L67.0771 16.1058H62.8963L61.3022 27.3898H59.4868L61.0822 16.1058H59.2117L59.4317 14.5409H61.3022L61.4676 13.3056C61.8523 10.4779 63.1726 9.04996 66.0332 9.04996C67.0508 9.04996 67.8485 9.13252 68.4539 9.26949L68.1217 10.6699Z" fill="white"/>
<path d="M69.3177 27.3898H67.4754L69.2632 14.5409H71.1061L69.3177 27.3898ZM70.8566 9.70857C71.4889 9.70857 71.9839 10.0926 71.8736 10.8069C71.764 11.493 71.2138 11.8777 70.5809 11.8777C69.948 11.8777 69.4536 11.4661 69.5639 10.7794C69.6742 10.0926 70.2231 9.70857 70.8566 9.70857V9.70857Z" fill="white"/>
<path d="M87.7717 14.5121C85.7633 18.4381 83.8935 22.4742 81.9127 25.5208C79.6299 28.6775 77.2368 30.7922 73.6331 32L72.643 29.0622C74.0736 28.4586 75.2285 27.7994 76.384 26.6735L73.138 14.5127H76.9893L78.7206 21.3215C78.8585 21.9801 78.9957 22.6118 79.1054 23.216C80.7553 20.6898 82.0756 18.1366 83.7813 14.5114L87.7717 14.5121Z" fill="white"/>
<path d="M100.2 27.6631H96.4322L96.6246 26.3996C95.2492 27.3597 94.3694 27.9101 92.4713 27.9101C89.6383 27.9101 87.2453 25.8511 87.9327 20.8268C88.5925 16.1321 90.7932 14.3194 93.7916 14.3194C95.4691 14.3194 96.7625 14.8142 98.1097 15.7749L98.3021 14.5121H102.043L100.2 27.6631ZM97.6993 18.6577C96.7644 17.8339 95.9943 17.3949 94.8939 17.3949C93.1882 17.3949 92.0084 18.4381 91.648 21.1289C91.2632 23.8171 92.2251 24.8347 93.7936 24.8347C95.1139 24.8347 95.884 24.2862 97.0389 23.3799L97.6993 18.6577Z" fill="white"/>
<path d="M58.7269 4.84038C58.2992 5.00744 58.0164 4.42948 58.4313 4.23426C58.6668 4.12332 58.9032 4.01451 59.1405 3.90784C65.8669 0.87603 73.2471 -0.425541 80.6071 0.12198C84.2923 0.397585 87.9336 1.09468 91.4594 2.19956H91.4632C92.082 2.39158 92.5149 2.92665 92.5014 3.53917C92.4783 4.59205 91.4113 5.23785 90.4494 4.93895C90.4161 4.92871 90.3795 4.91591 90.3475 4.90375C87.1149 3.64344 83.7472 2.76029 80.3115 2.27189C76.8235 1.78113 73.2877 1.72695 69.7863 2.1106C66.2498 2.50029 62.7754 3.32606 59.4425 4.56901C59.2027 4.65904 58.9641 4.7495 58.7269 4.84038Z" fill="url(#paint0_linear_2780_2568)"/>
<path d="M52.4679 11.7209C51.5547 11.7334 50.6582 11.4754 49.892 10.9794C49.1257 10.4833 48.524 9.77155 48.1631 8.93414C47.8022 8.09672 47.6982 7.17127 47.8643 6.27485C48.0304 5.37843 48.4592 4.55133 49.0963 3.89817C49.7334 3.24502 50.5503 2.79516 51.4437 2.6055C52.337 2.41585 53.2666 2.49492 54.1149 2.83271C54.9633 3.1705 55.6921 3.75185 56.2094 4.50319C56.7266 5.25453 57.0089 6.14212 57.0207 7.05366C57.0353 8.27467 56.5642 9.45163 55.7108 10.3265C54.8573 11.2014 53.6912 11.7028 52.4679 11.7209V11.7209ZM52.382 5.2161C52.0059 5.22107 51.6397 5.33724 51.3297 5.54994C51.0198 5.76263 50.7799 6.06229 50.6406 6.41103C50.5012 6.75976 50.4686 7.14191 50.5469 7.50914C50.6251 7.87638 50.8107 8.21222 51.0801 8.47418C51.3496 8.73615 51.6908 8.91249 52.0607 8.9809C52.4305 9.0493 52.8124 9.00671 53.158 8.8585C53.5036 8.71028 53.7974 8.46311 54.0022 8.14824C54.2071 7.83336 54.3138 7.46492 54.3089 7.08951C54.3018 6.58618 54.0949 6.10622 53.7337 5.75499C53.3724 5.40375 52.8863 5.20994 52.382 5.2161Z" fill="url(#paint1_linear_2780_2568)"/>
<path d="M98.558 11.7842C97.6448 11.7968 96.7483 11.5388 95.9821 11.0427C95.2158 10.5467 94.6141 9.83491 94.2532 8.99749C93.8923 8.16007 93.7883 7.23462 93.9544 6.3382C94.1205 5.44179 94.5492 4.61468 95.1864 3.96153C95.8235 3.30837 96.6404 2.85851 97.5338 2.66886C98.4271 2.4792 99.3567 2.55827 100.205 2.89606C101.053 3.23386 101.782 3.8152 102.299 4.56654C102.817 5.31788 103.099 6.20547 103.111 7.11702C103.127 8.33837 102.656 9.51601 101.802 10.3912C100.948 11.2663 99.7816 11.7674 98.558 11.7842ZM98.4702 5.28009C98.0939 5.28506 97.7276 5.40129 97.4175 5.61409C97.1074 5.82688 96.8675 6.12668 96.7281 6.47557C96.5887 6.82446 96.5562 7.20676 96.6345 7.57414C96.7128 7.94152 96.8985 8.27747 97.1681 8.5395C97.4377 8.80153 97.7791 8.97787 98.1491 9.04623C98.5191 9.11459 98.9011 9.07189 99.2468 8.92353C99.5925 8.77517 99.8864 8.52782 100.091 8.21276C100.296 7.89769 100.403 7.52907 100.398 7.1535C100.39 6.65016 100.183 6.17031 99.8219 5.81913C99.4606 5.46795 98.9745 5.27411 98.4702 5.28009Z" fill="url(#paint2_linear_2780_2568)"/>
<defs>
<linearGradient id="paint0_linear_2780_2568" x1="48.1234" y1="2.50806" x2="102.902" y2="2.50806" gradientUnits="userSpaceOnUse">
<stop stop-color="#F6921E"/>
<stop offset="1" stop-color="#FFD800"/>
</linearGradient>
<linearGradient id="paint1_linear_2780_2568" x1="48.1236" y1="7.11447" x2="102.902" y2="7.11447" gradientUnits="userSpaceOnUse">
<stop stop-color="#F6921E"/>
<stop offset="1" stop-color="#FFD800"/>
</linearGradient>
<linearGradient id="paint2_linear_2780_2568" x1="48.1235" y1="7.17846" x2="102.902" y2="7.17846" gradientUnits="userSpaceOnUse">
<stop stop-color="#F6921E"/>
<stop offset="0.479167" stop-color="#FAB410"/>
<stop offset="1" stop-color="#FFD800"/>
</linearGradient>
</defs>
</svg>
